<mxfile host="app.diagrams.net" modified="2023-06-19T15:24:40.066Z" agent="Mozilla/5.0 (Windows NT 10.0; Win64; x64) AppleWebKit/537.36 (KHTML, like Gecko) Chrome/114.0.0.0 Safari/537.36" etag="rnnv5FMrLaU3ei8dHSiW" version="21.5.0" type="device">
  <diagram name="Page-1" id="4NttJN0XThCtxKq1Q5k7">
    <mxGraphModel dx="794" dy="1107" grid="1" gridSize="10" guides="1" tooltips="1" connect="1" arrows="1" fold="1" page="1" pageScale="1" pageWidth="850" pageHeight="1100" math="0" shadow="0">
      <root>
        <mxCell id="0" />
        <mxCell id="1" parent="0" />
        <mxCell id="UZr9VpXuxcfmV2gfaOis-1" value="" style="rounded=0;whiteSpace=wrap;html=1;" parent="1" vertex="1">
          <mxGeometry x="80" y="120" width="370" height="580" as="geometry" />
        </mxCell>
        <mxCell id="UZr9VpXuxcfmV2gfaOis-2" value="Gr&amp;nbsp; &amp;nbsp;o&amp;nbsp; upTripper" style="html=1;shadow=0;dashed=0;fillColor=#F8F9FA;strokeColor=none;fontSize=16;fontColor=#181819;align=left;spacing=15;" parent="1" vertex="1">
          <mxGeometry x="80" y="120" width="370" height="50" as="geometry" />
        </mxCell>
        <mxCell id="UZr9VpXuxcfmV2gfaOis-4" value="Username" style="fillColor=none;strokeColor=none;fontSize=14;fontColor=#7C7C7D;align=center;" parent="UZr9VpXuxcfmV2gfaOis-2" vertex="1">
          <mxGeometry width="50" height="40" relative="1" as="geometry">
            <mxPoint x="300" y="5" as="offset" />
          </mxGeometry>
        </mxCell>
        <mxCell id="UZr9VpXuxcfmV2gfaOis-10" value="" style="html=1;verticalLabelPosition=bottom;align=center;labelBackgroundColor=#ffffff;verticalAlign=top;strokeWidth=2;strokeColor=#0080F0;shadow=0;dashed=0;shape=mxgraph.ios7.icons.location;" parent="UZr9VpXuxcfmV2gfaOis-2" vertex="1">
          <mxGeometry x="30" y="10.158333333333335" width="28.24" height="29.683333333333334" as="geometry" />
        </mxCell>
        <mxCell id="UZr9VpXuxcfmV2gfaOis-14" value="" style="html=1;verticalLabelPosition=bottom;align=center;labelBackgroundColor=#ffffff;verticalAlign=top;strokeWidth=2;strokeColor=#0080F0;shadow=0;dashed=0;shape=mxgraph.ios7.icons.user;" parent="UZr9VpXuxcfmV2gfaOis-2" vertex="1">
          <mxGeometry x="260" y="10.153333333333334" width="30" height="29.683333333333334" as="geometry" />
        </mxCell>
        <mxCell id="UZr9VpXuxcfmV2gfaOis-39" value="" style="group" parent="1" vertex="1" connectable="0">
          <mxGeometry x="580" y="120" width="200" height="230" as="geometry" />
        </mxCell>
        <mxCell id="UZr9VpXuxcfmV2gfaOis-15" value="" style="rounded=0;whiteSpace=wrap;html=1;" parent="UZr9VpXuxcfmV2gfaOis-39" vertex="1">
          <mxGeometry width="200" height="230" as="geometry" />
        </mxCell>
        <mxCell id="UZr9VpXuxcfmV2gfaOis-21" value="" style="shape=image;html=1;verticalAlign=top;verticalLabelPosition=bottom;labelBackgroundColor=#ffffff;imageAspect=0;aspect=fixed;image=https://cdn2.iconfinder.com/data/icons/user-interface-169/32/about-128.png" parent="UZr9VpXuxcfmV2gfaOis-39" vertex="1">
          <mxGeometry x="19" y="20" width="30" height="30" as="geometry" />
        </mxCell>
        <mxCell id="UZr9VpXuxcfmV2gfaOis-22" value="View Profile" style="text;html=1;strokeColor=none;fillColor=none;align=center;verticalAlign=middle;whiteSpace=wrap;rounded=0;" parent="UZr9VpXuxcfmV2gfaOis-39" vertex="1">
          <mxGeometry x="50" y="20" width="80" height="30" as="geometry" />
        </mxCell>
        <mxCell id="UZr9VpXuxcfmV2gfaOis-23" value="" style="group" parent="UZr9VpXuxcfmV2gfaOis-39" vertex="1" connectable="0">
          <mxGeometry x="20" y="60" width="101" height="30" as="geometry" />
        </mxCell>
        <mxCell id="UZr9VpXuxcfmV2gfaOis-19" value="" style="sketch=0;pointerEvents=1;shadow=0;dashed=0;html=1;strokeColor=none;fillColor=#505050;labelPosition=center;verticalLabelPosition=bottom;verticalAlign=top;outlineConnect=0;align=center;shape=mxgraph.office.concepts.settings_office_365;" parent="UZr9VpXuxcfmV2gfaOis-23" vertex="1">
          <mxGeometry width="31" height="30" as="geometry" />
        </mxCell>
        <mxCell id="UZr9VpXuxcfmV2gfaOis-20" value="Settings" style="text;html=1;strokeColor=none;fillColor=none;align=center;verticalAlign=middle;whiteSpace=wrap;rounded=0;" parent="UZr9VpXuxcfmV2gfaOis-23" vertex="1">
          <mxGeometry x="41" width="60" height="30" as="geometry" />
        </mxCell>
        <mxCell id="UZr9VpXuxcfmV2gfaOis-24" value="" style="group" parent="UZr9VpXuxcfmV2gfaOis-39" vertex="1" connectable="0">
          <mxGeometry x="20" y="100" width="100" height="30" as="geometry" />
        </mxCell>
        <mxCell id="UZr9VpXuxcfmV2gfaOis-17" value="" style="shape=image;html=1;verticalAlign=top;verticalLabelPosition=bottom;labelBackgroundColor=#ffffff;imageAspect=0;aspect=fixed;image=https://cdn0.iconfinder.com/data/icons/google-material-design-3-0/48/ic_exit_to_app_48px-128.png" parent="UZr9VpXuxcfmV2gfaOis-24" vertex="1">
          <mxGeometry width="30" height="30" as="geometry" />
        </mxCell>
        <mxCell id="UZr9VpXuxcfmV2gfaOis-18" value="Log out" style="text;html=1;strokeColor=none;fillColor=none;align=center;verticalAlign=middle;whiteSpace=wrap;rounded=0;" parent="UZr9VpXuxcfmV2gfaOis-24" vertex="1">
          <mxGeometry x="40" width="60" height="30" as="geometry" />
        </mxCell>
        <mxCell id="UZr9VpXuxcfmV2gfaOis-27" value="contact us" style="text;html=1;strokeColor=none;fillColor=none;align=center;verticalAlign=middle;whiteSpace=wrap;rounded=0;" parent="UZr9VpXuxcfmV2gfaOis-39" vertex="1">
          <mxGeometry x="60" y="140" width="80" height="30" as="geometry" />
        </mxCell>
        <mxCell id="xs5J32hr3lDiJI678Li0-1" value="" style="whiteSpace=wrap;html=1;shape=mxgraph.basic.oval_callout" parent="UZr9VpXuxcfmV2gfaOis-39" vertex="1">
          <mxGeometry x="20" y="140" width="34" height="20" as="geometry" />
        </mxCell>
        <mxCell id="UZr9VpXuxcfmV2gfaOis-40" value="" style="endArrow=classic;html=1;rounded=0;entryX=0;entryY=0.043;entryDx=0;entryDy=0;entryPerimeter=0;exitX=1;exitY=1;exitDx=0;exitDy=0;" parent="1" source="UZr9VpXuxcfmV2gfaOis-4" target="UZr9VpXuxcfmV2gfaOis-15" edge="1">
          <mxGeometry width="50" height="50" relative="1" as="geometry">
            <mxPoint x="410" y="130" as="sourcePoint" />
            <mxPoint x="460" y="80" as="targetPoint" />
          </mxGeometry>
        </mxCell>
        <mxCell id="UZr9VpXuxcfmV2gfaOis-43" value="click" style="edgeLabel;html=1;align=center;verticalAlign=middle;resizable=0;points=[];" parent="UZr9VpXuxcfmV2gfaOis-40" vertex="1" connectable="0">
          <mxGeometry x="0.6213" y="3" relative="1" as="geometry">
            <mxPoint as="offset" />
          </mxGeometry>
        </mxCell>
        <mxCell id="UZr9VpXuxcfmV2gfaOis-44" value="" style="endArrow=classic;html=1;rounded=0;" parent="1" edge="1">
          <mxGeometry width="50" height="50" relative="1" as="geometry">
            <mxPoint x="140" y="130" as="sourcePoint" />
            <mxPoint x="190" y="80" as="targetPoint" />
          </mxGeometry>
        </mxCell>
        <mxCell id="UZr9VpXuxcfmV2gfaOis-45" value="Clicking on logo always redirects home" style="text;html=1;strokeColor=none;fillColor=none;align=center;verticalAlign=middle;whiteSpace=wrap;rounded=0;" parent="1" vertex="1">
          <mxGeometry x="160" y="50" width="150" height="30" as="geometry" />
        </mxCell>
        <mxCell id="UZr9VpXuxcfmV2gfaOis-50" value="&lt;font style=&quot;font-size: 19px;&quot;&gt;Contact us&lt;/font&gt;" style="text;html=1;strokeColor=none;fillColor=none;align=center;verticalAlign=middle;whiteSpace=wrap;rounded=0;" parent="1" vertex="1">
          <mxGeometry x="80" y="180" width="140" height="30" as="geometry" />
        </mxCell>
        <mxCell id="xs5J32hr3lDiJI678Li0-16" value="Write here.." style="html=1;shadow=0;dashed=0;shape=mxgraph.bootstrap.rrect;rSize=5;strokeColor=#CED4DA;html=1;whiteSpace=wrap;fillColor=#FFFFFF;fontColor=#7D868C;align=left;spacing=15;spacingLeft=40;fontSize=14;" parent="1" vertex="1">
          <mxGeometry x="95" y="370" width="340" height="270" as="geometry" />
        </mxCell>
        <mxCell id="xs5J32hr3lDiJI678Li0-18" value="Send" style="rounded=1;fillColor=#0057D8;strokeColor=none;html=1;whiteSpace=wrap;fontColor=#ffffff;align=center;verticalAlign=middle;fontStyle=0;fontSize=12;sketch=0;" parent="1" vertex="1">
          <mxGeometry x="270" y="650" width="86" height="33" as="geometry" />
        </mxCell>
        <mxCell id="xs5J32hr3lDiJI678Li0-19" value="Cancel" style="rounded=1;fillColor=#0057D8;strokeColor=none;html=1;whiteSpace=wrap;fontColor=#ffffff;align=center;verticalAlign=middle;fontStyle=0;fontSize=12;sketch=0;" parent="1" vertex="1">
          <mxGeometry x="170" y="650" width="86" height="33" as="geometry" />
        </mxCell>
        <mxCell id="xs5J32hr3lDiJI678Li0-20" value="Why are you contacting us?" style="html=1;shadow=0;dashed=0;shape=mxgraph.bootstrap.rrect;rSize=5;strokeColor=none;strokeWidth=1;fillColor=#6C767D;fontColor=#ffffff;whiteSpace=wrap;align=left;verticalAlign=middle;fontStyle=0;fontSize=14;spacingLeft=10;" parent="1" vertex="1">
          <mxGeometry x="100" y="240" width="290" height="40" as="geometry" />
        </mxCell>
        <mxCell id="xs5J32hr3lDiJI678Li0-21" value="" style="shape=triangle;direction=south;fillColor=#ffffff;strokeColor=none;perimeter=none;" parent="xs5J32hr3lDiJI678Li0-20" vertex="1">
          <mxGeometry x="1" y="0.5" width="10" height="5" relative="1" as="geometry">
            <mxPoint x="-17" y="-2.5" as="offset" />
          </mxGeometry>
        </mxCell>
        <mxCell id="xs5J32hr3lDiJI678Li0-22" value="" style="html=1;shadow=0;dashed=0;shape=mxgraph.bootstrap.rrect;rSize=5;fillColor=#ffffff;strokeColor=#999999;" parent="1" vertex="1">
          <mxGeometry x="100" y="283" width="170" height="110" as="geometry" />
        </mxCell>
        <mxCell id="xs5J32hr3lDiJI678Li0-23" value="Bug report" style="fillColor=none;strokeColor=none;align=left;spacing=20;fontSize=14;" parent="xs5J32hr3lDiJI678Li0-22" vertex="1">
          <mxGeometry width="170" height="30" relative="1" as="geometry">
            <mxPoint y="10" as="offset" />
          </mxGeometry>
        </mxCell>
        <mxCell id="xs5J32hr3lDiJI678Li0-24" value="Feature request" style="fillColor=none;strokeColor=none;align=left;spacing=20;fontSize=14;" parent="xs5J32hr3lDiJI678Li0-22" vertex="1">
          <mxGeometry width="170" height="30" relative="1" as="geometry">
            <mxPoint y="40" as="offset" />
          </mxGeometry>
        </mxCell>
        <mxCell id="xs5J32hr3lDiJI678Li0-25" value="Other" style="fillColor=none;strokeColor=none;align=left;spacing=20;fontSize=14;" parent="xs5J32hr3lDiJI678Li0-22" vertex="1">
          <mxGeometry width="170" height="30" relative="1" as="geometry">
            <mxPoint y="70" as="offset" />
          </mxGeometry>
        </mxCell>
        <mxCell id="xs5J32hr3lDiJI678Li0-26" value="" style="endArrow=classic;html=1;rounded=0;" parent="1" edge="1">
          <mxGeometry width="50" height="50" relative="1" as="geometry">
            <mxPoint x="356" y="670" as="sourcePoint" />
            <mxPoint x="500" y="730" as="targetPoint" />
          </mxGeometry>
        </mxCell>
        <mxCell id="xs5J32hr3lDiJI678Li0-27" value="Sends email to site&#39;s email account and logs into database" style="text;html=1;align=center;verticalAlign=middle;resizable=0;points=[];autosize=1;strokeColor=none;fillColor=none;" parent="1" vertex="1">
          <mxGeometry x="445" y="740" width="330" height="30" as="geometry" />
        </mxCell>
        <mxCell id="KCbIDEFvDQmaLRkereAl-1" value="" style="html=1;shadow=0;dashed=0;shape=mxgraph.bootstrap.rrect;rSize=5;html=1;strokeColor=#C8C8C8;fillColor=#ffffff;whiteSpace=wrap;verticalAlign=top;align=left;fontSize=18;spacing=15;spacingTop=-5;" vertex="1" parent="1">
          <mxGeometry x="225" y="780" width="400" height="200" as="geometry" />
        </mxCell>
        <mxCell id="KCbIDEFvDQmaLRkereAl-2" value="" style="shape=line;strokeColor=#dddddd;resizeWidth=1;" vertex="1" parent="KCbIDEFvDQmaLRkereAl-1">
          <mxGeometry width="400" height="10" relative="1" as="geometry">
            <mxPoint y="50" as="offset" />
          </mxGeometry>
        </mxCell>
        <mxCell id="KCbIDEFvDQmaLRkereAl-3" value="" style="html=1;shadow=0;dashed=0;shape=mxgraph.bootstrap.x;strokeColor=#868686;strokeWidth=2;" vertex="1" parent="KCbIDEFvDQmaLRkereAl-1">
          <mxGeometry x="1" width="8" height="8" relative="1" as="geometry">
            <mxPoint x="-24" y="20" as="offset" />
          </mxGeometry>
        </mxCell>
        <mxCell id="KCbIDEFvDQmaLRkereAl-4" value="Thank you for contacting us! &#xa;We&#39;ll try to get back to you in the next two working days." style="strokeColor=none;fillColor=none;resizeWidth=1;align=left;verticalAlign=top;spacing=10;fontSize=13;" vertex="1" parent="KCbIDEFvDQmaLRkereAl-1">
          <mxGeometry width="400" height="60" relative="1" as="geometry">
            <mxPoint y="60" as="offset" />
          </mxGeometry>
        </mxCell>
        <mxCell id="KCbIDEFvDQmaLRkereAl-5" value="" style="shape=line;strokeColor=#dddddd;resizeWidth=1;" vertex="1" parent="KCbIDEFvDQmaLRkereAl-1">
          <mxGeometry width="400" height="10" relative="1" as="geometry">
            <mxPoint y="120" as="offset" />
          </mxGeometry>
        </mxCell>
        <mxCell id="KCbIDEFvDQmaLRkereAl-7" value="Close" style="html=1;shadow=0;dashed=0;shape=mxgraph.bootstrap.rrect;rSize=5;fillColor=#6C757D;strokeColor=none;fontColor=#FFFFFF;fontSize=14;" vertex="1" parent="KCbIDEFvDQmaLRkereAl-1">
          <mxGeometry x="1" y="1" width="70" height="40" relative="1" as="geometry">
            <mxPoint x="-240" y="-60" as="offset" />
          </mxGeometry>
        </mxCell>
        <mxCell id="KCbIDEFvDQmaLRkereAl-9" value="" style="endArrow=classic;html=1;rounded=0;" edge="1" parent="KCbIDEFvDQmaLRkereAl-1">
          <mxGeometry width="50" height="50" relative="1" as="geometry">
            <mxPoint x="225" y="160" as="sourcePoint" />
            <mxPoint x="425" y="150" as="targetPoint" />
          </mxGeometry>
        </mxCell>
        <mxCell id="KCbIDEFvDQmaLRkereAl-8" value="" style="endArrow=classic;html=1;rounded=0;entryX=0.3;entryY=0;entryDx=0;entryDy=0;entryPerimeter=0;exitX=0.75;exitY=1;exitDx=0;exitDy=0;" edge="1" parent="1" source="xs5J32hr3lDiJI678Li0-18" target="KCbIDEFvDQmaLRkereAl-1">
          <mxGeometry width="50" height="50" relative="1" as="geometry">
            <mxPoint x="366" y="680" as="sourcePoint" />
            <mxPoint x="510" y="740" as="targetPoint" />
          </mxGeometry>
        </mxCell>
        <mxCell id="KCbIDEFvDQmaLRkereAl-10" value="redirect home" style="text;html=1;align=center;verticalAlign=middle;resizable=0;points=[];autosize=1;strokeColor=none;fillColor=none;" vertex="1" parent="1">
          <mxGeometry x="640" y="920" width="100" height="30" as="geometry" />
        </mxCell>
      </root>
    </mxGraphModel>
  </diagram>
</mxfile>
